<mxfile host="app.diagrams.net" modified="2024-05-13T14:20:12.739Z" agent="Mozilla/5.0 (Windows NT 10.0; Win64; x64) AppleWebKit/537.36 (KHTML, like Gecko) Chrome/124.0.0.0 Safari/537.36" version="24.4.0" etag="V25h8anLPppDP21WFd19" type="github">
  <diagram name="Page-1" id="NPTaIegqSqd3kJv50w7J">
    <mxGraphModel>
      <root>
        <mxCell id="0" />
        <mxCell id="1" parent="0" />
      </root>
    </mxGraphModel>
  </diagram>
</mxfile>
